<svg width="19" height="19" viewBox="0 0 19 19" fill="none" xmlns="http://www.w3.org/2000/svg">
<path d="M0 16.3281H2.375M0 9.5H9.79688M0 2.96875H5.04688M9.5 16.3281H18.7031M17.2188 9.5H18.7031M12.1719 2.96875H18.7031" stroke="#FFF7F7"/>
<circle cx="4.75" cy="16.0312" r="2.96875" fill="#FFF7F7"/>
<circle cx="7.71875" cy="2.96875" r="2.96875" fill="#FFF7F7"/>
<circle cx="7.71875" cy="2.96875" r="2.375" fill="#302A20"/>
<circle cx="7.71875" cy="2.96875" r="2.375" fill="#302A20"/>
<circle cx="7.71875" cy="2.96875" r="2.375" fill="#302A20"/>
<circle cx="7.71875" cy="2.96875" r="2.375" fill="#313131"/>
<circle cx="4.75" cy="16.0312" r="2.375" fill="#302A20"/>
<circle cx="4.75" cy="16.0312" r="2.375" fill="#302A20"/>
<circle cx="4.75" cy="16.0312" r="2.375" fill="#313131"/>
<circle cx="4.75" cy="16.0312" r="2.375" fill="#313131"/>
<circle cx="12.4688" cy="9.5" r="2.96875" fill="#FFF7F7"/>
<circle cx="12.4688" cy="9.5" r="2.375" fill="#302A20"/>
<circle cx="12.4688" cy="9.5" r="2.375" fill="#302A20"/>
<circle cx="12.4688" cy="9.5" r="2.375" fill="#302A20"/>
<circle cx="12.4688" cy="9.5" r="2.375" fill="#313131"/>
</svg>
