<svg width="436" height="667" viewBox="0 0 436 667" fill="none" xmlns="http://www.w3.org/2000/svg">
<path d="M365.639 594.653C365.733 585.247 363.965 575.913 360.435 567.186C356.906 558.459 351.685 550.51 345.07 543.792C338.455 537.073 330.576 531.718 321.883 528.031C313.19 524.344 303.852 522.398 294.404 522.304C284.955 522.21 275.581 523.97 266.815 527.483C258.05 530.995 250.066 536.193 243.319 542.778C236.571 549.363 231.193 557.207 227.491 565.862C223.788 574.517 221.835 583.813 221.741 593.22L293.69 593.937L365.639 594.653Z" fill="#FAF8E6" fill-opacity="0.26"/>
<path d="M216.249 445.194C216.342 435.787 214.574 426.453 211.045 417.726C207.516 408.999 202.294 401.05 195.68 394.332C189.065 387.613 181.186 382.258 172.492 378.571C163.799 374.884 154.461 372.938 145.013 372.844C135.564 372.75 126.19 374.51 117.425 378.023C108.66 381.536 100.675 386.733 93.9281 393.318C87.1808 399.903 81.8024 407.747 78.1 416.402C74.3977 425.057 72.4439 434.353 72.3502 443.76L144.299 444.477L216.249 445.194Z" fill="#FAF8E6" fill-opacity="0.26"/>
<path d="M221.465 293.564C230.722 293.497 239.876 291.571 248.402 287.893C256.929 284.216 264.662 278.861 271.16 272.133C277.658 265.404 282.794 257.435 286.274 248.681C289.754 239.926 291.51 230.556 291.443 221.108C291.375 211.659 289.484 202.316 285.879 193.612C282.274 184.908 277.025 177.013 270.431 170.379C263.837 163.744 256.028 158.5 247.45 154.946C238.871 151.391 229.691 149.596 220.434 149.662L220.949 221.613L221.465 293.564Z" fill="#FAF8E6" fill-opacity="0.26"/>
<path d="M72.2463 591.551C81.5036 591.484 90.6569 589.557 99.1837 585.88C107.71 582.203 115.444 576.848 121.942 570.119C128.44 563.391 133.575 555.422 137.055 546.667C140.535 537.912 142.292 528.543 142.224 519.094C142.156 509.646 140.266 500.303 136.661 491.598C133.055 482.894 127.806 475 121.212 468.365C114.618 461.731 106.809 456.487 98.2308 452.932C89.6523 449.378 80.4723 447.582 71.215 447.649L71.7306 519.6L72.2463 591.551Z" fill="#FAF8E6" fill-opacity="0.26"/>
<path d="M71.5246 145.21C80.7819 145.143 89.9353 143.217 98.462 139.539C106.989 135.862 114.722 130.507 121.22 123.779C127.718 117.05 132.854 109.081 136.334 100.327C139.814 91.5716 141.57 82.2024 141.502 72.7536C141.435 63.3049 139.544 53.9618 135.939 45.2577C132.334 36.5536 127.084 28.659 120.491 22.0246C113.897 15.3903 106.088 10.1461 97.5092 6.59154C88.9306 3.03697 79.7506 1.2416 70.4933 1.30795L71.009 73.2588L71.5246 145.21Z" fill="#FAF8E6" fill-opacity="0.26"/>
<path d="M214.186 591.321C205.1 591.284 196.111 589.387 187.731 585.737C179.35 582.087 171.744 576.756 165.345 570.049C158.946 563.342 153.88 555.389 150.437 546.646C146.993 537.902 145.239 528.538 145.276 519.089C145.312 509.64 147.137 500.291 150.647 491.576C154.158 482.86 159.284 474.949 165.734 468.293C172.185 461.638 179.832 456.369 188.24 452.787C196.648 449.205 205.651 447.38 214.737 447.416L214.461 519.369L214.186 591.321Z" fill="#FAF8E6" fill-opacity="0.26"/>
<path d="M364.269 144.184C355.183 144.147 346.194 142.25 337.814 138.6C329.433 134.95 321.827 129.619 315.428 122.912C309.029 116.205 303.963 108.252 300.52 99.5083C297.076 90.7647 295.322 81.4011 295.359 71.9522C295.395 62.5033 297.22 53.1541 300.73 44.4385C304.241 35.7229 309.367 27.8115 315.817 21.1561C322.267 14.5007 329.915 9.23149 338.323 5.64943C346.731 2.06738 355.734 0.242601 364.82 0.279277L364.544 72.2315L364.269 144.184Z" fill="#FAF8E6" fill-opacity="0.26"/>
<path d="M365.616 293.883C356.53 293.846 347.54 291.949 339.16 288.299C330.78 284.649 323.173 279.318 316.774 272.611C310.376 265.904 305.31 257.951 301.866 249.208C298.423 240.464 296.669 231.1 296.705 221.651C296.741 212.203 298.567 202.853 302.077 194.138C305.587 185.422 310.714 177.511 317.164 170.855C323.614 164.2 331.261 158.931 339.669 155.349C348.077 151.767 357.081 149.942 366.167 149.978L365.891 221.931L365.616 293.883Z" fill="#FAF8E6" fill-opacity="0.26"/>
<path d="M364.139 299.09C364.18 308.494 362.359 317.814 358.781 326.518C355.202 335.222 349.937 343.139 343.284 349.818C336.632 356.496 328.723 361.806 320.008 365.442C311.294 369.079 301.946 370.972 292.497 371.012C283.048 371.053 273.684 369.242 264.939 365.681C256.194 362.12 248.239 356.879 241.529 350.259C234.818 343.638 229.484 335.767 225.831 327.094C222.177 318.422 220.276 309.118 220.235 299.714L292.187 299.402L364.139 299.09Z" fill="#FAF8E6" fill-opacity="0.26"/>
<path d="M216.408 150.733C216.448 160.137 214.628 169.457 211.049 178.161C207.471 186.865 202.205 194.782 195.553 201.46C188.9 208.139 180.991 213.448 172.277 217.085C163.563 220.721 154.215 222.614 144.766 222.655C135.317 222.696 125.952 220.884 117.207 217.323C108.462 213.762 100.507 208.522 93.797 201.901C87.0869 195.281 81.7527 187.409 78.0991 178.737C74.4456 170.064 72.5441 160.76 72.5034 151.356L144.455 151.045L216.408 150.733Z" fill="#FAF8E6" fill-opacity="0.26"/>
<path d="M364.187 446.059C364.281 436.652 362.513 427.319 358.983 418.592C355.454 409.865 350.233 401.916 343.618 395.197C337.003 388.479 329.124 383.124 320.431 379.437C311.737 375.75 302.4 373.804 292.951 373.71C283.503 373.616 274.128 375.375 265.363 378.888C256.598 382.401 248.614 387.599 241.867 394.184C235.119 400.769 229.741 408.613 226.039 417.268C222.336 425.923 220.382 435.219 220.289 444.626L292.238 445.343L364.187 446.059Z" fill="#FAF8E6" fill-opacity="0.26"/>
<path d="M364.335 450.513C364.245 459.544 362.295 468.468 358.596 476.775C354.897 485.083 349.521 492.611 342.777 498.93C336.032 505.249 328.05 510.236 319.286 513.605C310.523 516.974 301.149 518.659 291.7 518.565C282.252 518.471 272.914 516.599 264.219 513.056C255.524 509.513 247.643 504.369 241.025 497.917C234.408 491.464 229.184 483.831 225.651 475.451C222.118 467.072 220.346 458.111 220.436 449.08L292.385 449.797L364.335 450.513Z" fill="#FAF8E6" fill-opacity="0.26"/>
<path d="M216.454 296.597C216.547 287.19 214.779 277.857 211.25 269.13C207.721 260.403 202.5 252.453 195.885 245.735C189.27 239.017 181.391 233.661 172.697 229.974C164.004 226.288 154.666 224.342 145.218 224.247C135.769 224.153 126.395 225.913 117.63 229.426C108.865 232.939 100.881 238.136 94.1332 244.721C87.3858 251.307 82.0074 259.151 78.3051 267.805C74.6027 276.46 72.6489 285.757 72.5552 295.164L144.504 295.88L216.454 296.597Z" fill="#FAF8E6" fill-opacity="0.26"/>
<path d="M216.601 301.051C216.511 310.082 214.561 319.005 210.862 327.313C207.163 335.62 201.788 343.149 195.043 349.468C188.299 355.787 180.317 360.773 171.553 364.142C162.789 367.511 153.415 369.197 143.967 369.103C134.518 369.009 125.18 367.137 116.485 363.594C107.79 360.051 99.9093 354.907 93.2918 348.454C86.6743 342.002 81.4501 334.368 77.9174 325.989C74.3847 317.609 72.6128 308.648 72.7027 299.617L144.652 300.334L216.601 301.051Z" fill="#FAF8E6" fill-opacity="0.26"/>
<path d="M220.09 146.499C229.496 146.375 238.786 144.392 247.429 140.663C256.073 136.933 263.9 131.53 270.463 124.762C277.027 117.994 282.2 109.993 285.685 101.217C289.17 92.4412 290.9 83.0612 290.776 73.6131C290.653 64.1649 288.677 54.8336 284.963 46.1518C281.249 37.47 275.869 29.6079 269.129 23.0142C262.39 16.4206 254.424 11.2245 245.687 7.72283C236.949 4.22112 227.61 2.48228 218.203 2.60561L219.146 74.5522L220.09 146.499Z" fill="#FAF8E6" fill-opacity="0.26"/>
<path d="M215.64 146.749C206.61 146.867 197.643 145.124 189.253 141.617C180.862 138.111 173.212 132.911 166.739 126.314C160.266 119.717 155.097 111.852 151.526 103.168C147.956 94.4844 146.055 85.1521 145.931 75.7039C145.807 66.2557 147.463 56.8768 150.804 48.1025C154.146 39.3282 159.107 31.3305 165.405 24.5659C171.703 17.8014 179.214 12.4024 187.51 8.67738C195.806 4.95235 204.723 2.97416 213.754 2.85577L214.697 74.8023L215.64 146.749Z" fill="#FAF8E6" fill-opacity="0.26"/>
</svg>
