<svg width="177" height="240" viewBox="0 0 177 240" fill="none" xmlns="http://www.w3.org/2000/svg">
<path d="M148.113 214.176C148.151 210.788 147.435 207.426 146.005 204.283C144.575 201.14 142.461 198.277 139.781 195.857C137.101 193.437 133.91 191.509 130.388 190.181C126.867 188.853 123.084 188.152 119.257 188.118C115.429 188.084 111.632 188.718 108.082 189.983C104.531 191.248 101.297 193.12 98.5635 195.492C95.8303 197.864 93.6516 200.689 92.1518 203.806C90.6521 206.923 89.8607 210.272 89.8227 213.66L118.968 213.918L148.113 214.176Z" fill="#FAF8E6" fill-opacity="0.26"/>
<path d="M87.5979 160.345C87.6359 156.957 86.9196 153.596 85.49 150.453C84.0604 147.309 81.9454 144.446 79.2659 142.027C76.5864 139.607 73.3947 137.678 69.8732 136.35C66.3516 135.022 62.5692 134.321 58.7418 134.287C54.9144 134.254 51.117 134.887 47.5664 136.153C44.0159 137.418 40.7816 139.29 38.0484 141.662C35.3152 144.033 33.1365 146.858 31.6368 149.976C30.137 153.093 29.3456 156.441 29.3076 159.829L58.4528 160.087L87.5979 160.345Z" fill="#FAF8E6" fill-opacity="0.26"/>
<path d="M89.711 105.733C93.461 105.709 97.1688 105.015 100.623 103.69C104.077 102.366 107.209 100.437 109.842 98.0138C112.474 95.5905 114.554 92.7203 115.964 89.5671C117.374 86.4139 118.085 83.0393 118.058 79.6362C118.03 76.2331 117.264 72.8679 115.804 69.733C114.344 66.598 112.217 63.7546 109.546 61.3652C106.875 58.9757 103.712 57.0869 100.237 55.8066C96.7618 54.5264 93.0432 53.8797 89.2933 53.9036L89.5022 79.8182L89.711 105.733Z" fill="#FAF8E6" fill-opacity="0.26"/>
<path d="M29.2655 213.058C33.0154 213.034 36.7233 212.341 40.1773 211.016C43.6313 209.692 46.7638 207.763 49.396 205.34C52.0282 202.916 54.1086 200.046 55.5183 196.893C56.928 193.74 57.6394 190.365 57.612 186.962C57.5846 183.559 56.8188 180.194 55.3584 177.059C53.898 173.924 51.7716 171.08 49.1006 168.691C46.4296 166.301 43.2663 164.413 39.7913 163.132C36.3163 161.852 32.5977 161.205 28.8477 161.229L29.0566 187.144L29.2655 213.058Z" fill="#FAF8E6" fill-opacity="0.26"/>
<path d="M28.9732 52.3001C32.7231 52.2762 36.4309 51.5822 39.8849 50.2578C43.3389 48.9334 46.4715 47.0045 49.1037 44.5812C51.7359 42.1579 53.8163 39.2877 55.226 36.1345C56.6357 32.9813 57.3471 29.6067 57.3197 26.2036C57.2922 22.8004 56.5265 19.4353 55.0661 16.3004C53.6057 13.1654 51.4793 10.322 48.8083 7.93254C46.1373 5.54305 42.974 3.65426 39.499 2.37402C36.024 1.09377 32.3053 0.447129 28.5554 0.471024L28.7643 26.3855L28.9732 52.3001Z" fill="#FAF8E6" fill-opacity="0.26"/>
<path d="M86.7624 212.976C83.082 212.963 79.4405 212.279 76.0459 210.965C72.6512 209.65 69.5699 207.73 66.9778 205.315C64.3858 202.899 62.3337 200.034 60.9388 196.885C59.5439 193.736 58.8335 190.364 58.8482 186.96C58.8628 183.557 59.6022 180.19 61.0242 177.051C62.4462 173.912 64.5228 171.062 67.1356 168.665C69.7484 166.268 72.8462 164.37 76.2521 163.08C79.6579 161.79 83.3052 161.133 86.9856 161.146L86.874 187.061L86.7624 212.976Z" fill="#FAF8E6" fill-opacity="0.26"/>
<path d="M147.558 51.9305C143.878 51.9173 140.236 51.2339 136.841 49.9194C133.447 48.6048 130.365 46.6849 127.773 44.2691C125.181 41.8533 123.129 38.9891 121.734 35.8399C120.339 32.6907 119.629 29.3182 119.644 25.915C119.658 22.5118 120.398 19.1445 121.82 16.0054C123.242 12.8663 125.318 10.0169 127.931 7.61978C130.544 5.22269 133.642 3.3249 137.048 2.03475C140.454 0.744608 144.101 0.0873773 147.781 0.100587L147.67 26.0156L147.558 51.9305Z" fill="#FAF8E6" fill-opacity="0.26"/>
<path d="M148.103 105.848C144.423 105.834 140.782 105.151 137.387 103.836C133.992 102.522 130.911 100.602 128.319 98.1861C125.727 95.7703 123.675 92.9061 122.28 89.7569C120.885 86.6077 120.175 83.2352 120.189 79.832C120.204 76.4288 120.943 73.0615 122.365 69.9224C123.787 66.7833 125.864 63.9339 128.477 61.5368C131.09 59.1397 134.187 57.2419 137.593 55.9517C140.999 54.6616 144.646 54.0044 148.327 54.0176L148.215 79.9326L148.103 105.848Z" fill="#FAF8E6" fill-opacity="0.26"/>
<path d="M147.505 107.723C147.522 111.11 146.784 114.467 145.335 117.601C143.885 120.736 141.752 123.588 139.057 125.993C136.363 128.399 133.159 130.311 129.629 131.621C126.099 132.93 122.312 133.612 118.485 133.627C114.657 133.642 110.864 132.989 107.321 131.707C103.779 130.424 100.556 128.537 97.8383 126.152C95.1201 123.768 92.9594 120.933 91.4794 117.809C89.9994 114.685 89.2292 111.334 89.2127 107.947L118.359 107.835L147.505 107.723Z" fill="#FAF8E6" fill-opacity="0.26"/>
<path d="M87.6623 54.2892C87.6788 57.6762 86.9413 61.033 85.4918 64.1679C84.0423 67.3027 81.9093 70.1543 79.2144 72.5597C76.5196 74.9651 73.3158 76.8773 69.7859 78.1871C66.2561 79.4969 62.4692 80.1786 58.6417 80.1934C54.8141 80.2081 51.0208 79.5556 47.4783 78.2731C43.9358 76.9905 40.7135 75.1031 37.9953 72.7185C35.2771 70.3339 33.1164 67.4989 31.6364 64.3754C30.1564 61.2518 29.3862 57.9008 29.3697 54.5138L58.516 54.4015L87.6623 54.2892Z" fill="#FAF8E6" fill-opacity="0.26"/>
<path d="M147.525 160.657C147.563 157.269 146.846 153.907 145.417 150.764C143.987 147.621 141.872 144.758 139.193 142.338C136.513 139.918 133.322 137.99 129.8 136.662C126.278 135.334 122.496 134.633 118.669 134.599C114.841 134.565 111.044 135.199 107.493 136.464C103.943 137.729 100.708 139.601 97.9752 141.973C95.242 144.345 93.0633 147.17 91.5636 150.287C90.0638 153.404 89.2724 156.753 89.2344 160.141L118.38 160.399L147.525 160.657Z" fill="#FAF8E6" fill-opacity="0.26"/>
<path d="M147.585 162.261C147.548 165.514 146.758 168.728 145.26 171.72C143.761 174.712 141.584 177.424 138.852 179.7C136.12 181.976 132.886 183.772 129.336 184.985C125.786 186.199 121.989 186.806 118.162 186.772C114.335 186.738 110.552 186.064 107.03 184.788C103.508 183.512 100.315 181.659 97.6344 179.335C94.9538 177.011 92.8376 174.261 91.4066 171.243C89.9756 168.225 89.2578 164.998 89.2942 161.745L118.439 162.003L147.585 162.261Z" fill="#FAF8E6" fill-opacity="0.26"/>
<path d="M89.1538 52.7647C92.9642 52.7203 96.7274 52.0061 100.229 50.6628C103.73 49.3195 106.9 47.3735 109.559 44.9358C112.218 42.4982 114.313 39.6167 115.725 36.4558C117.137 33.2948 117.838 29.9165 117.788 26.5135C117.737 23.1106 116.937 19.7497 115.433 16.6228C113.928 13.4959 111.749 10.6642 109.019 8.28938C106.289 5.91455 103.062 4.0431 99.5226 2.78189C95.983 1.52068 92.2 0.894404 88.3896 0.938822L88.7717 26.8518L89.1538 52.7647Z" fill="#FAF8E6" fill-opacity="0.26"/>
<path d="M87.3515 52.8547C83.6934 52.8974 80.0613 52.2693 76.6625 51.0065C73.2636 49.7436 70.1647 47.8707 67.5425 45.4946C64.9204 43.1185 62.8264 40.2858 61.3802 37.1582C59.934 34.0306 59.1638 30.6694 59.1136 27.2665C59.0634 23.8635 59.7342 20.4855 61.0878 17.3253C62.4413 14.1651 64.451 11.2845 67.0022 8.84814C69.5534 6.41175 72.596 4.46721 75.9564 3.12557C79.3169 1.78393 82.9292 1.07144 86.5873 1.0288L86.9694 26.9418L87.3515 52.8547Z" fill="#FAF8E6" fill-opacity="0.26"/>
</svg>
